<?xml version="1.0" encoding="utf-8"?>
<svg width="1618px" height="202px" viewBox="0 0 1618 202" version="1.1" xmlns:xlink="http://www.w3.org/1999/xlink" xmlns="http://www.w3.org/2000/svg">
  <path d="M194.771 0L1456.02 0Q1456.6 0 1457.18 0.0334634Q1457.75 0.0669268 1458.33 0.133742Q1458.9 0.200556 1459.47 0.300499Q1460.04 0.400442 1460.61 0.533178Q1461.17 0.665914 1461.73 0.830999Q1462.28 0.996084 1462.82 1.19297Q1463.37 1.38985 1463.9 1.61787Q1464.43 1.84589 1464.95 2.10428Q1465.47 2.36268 1465.97 2.65058Q1466.47 2.93848 1466.96 3.25494Q1467.44 3.57139 1467.91 3.91533Q1468.37 4.25926 1468.82 4.62954Q1469.26 4.99981 1469.68 5.39519Q1470.11 5.79056 1470.51 6.20971Q1470.9 6.62885 1471.28 7.07037Q1471.65 7.51189 1472 7.9743L1593.9 169.976Q1594.32 170.53 1594.7 171.111Q1595.07 171.692 1595.41 172.298Q1595.75 172.903 1596.04 173.531Q1596.33 174.158 1596.58 174.805Q1596.83 175.451 1597.04 176.113Q1597.24 176.775 1597.4 177.449Q1597.55 178.124 1597.67 178.808Q1597.78 179.492 1597.84 180.181Q1597.9 180.871 1597.92 181.564Q1597.93 182.256 1597.9 182.948Q1597.87 183.64 1597.79 184.328Q1597.71 185.016 1597.58 185.697Q1597.45 186.378 1597.27 187.048Q1597.1 187.718 1596.88 188.375Q1596.66 189.031 1596.39 189.671Q1596.13 190.311 1595.82 190.931Q1595.51 191.551 1595.16 192.147Q1594.81 192.744 1594.41 193.316Q1594.02 193.887 1593.59 194.429Q1593.16 194.972 1592.69 195.484Q1592.23 195.995 1591.73 196.473Q1591.22 196.952 1590.69 197.394Q1590.16 197.836 1589.6 198.24Q1589.03 198.645 1588.44 199.009Q1587.85 199.373 1587.24 199.696Q1586.63 200.019 1585.99 200.299Q1585.36 200.578 1584.71 200.813Q1584.06 201.048 1583.39 201.238Q1582.73 201.427 1582.05 201.57Q1581.37 201.713 1580.68 201.809Q1580 201.904 1579.31 201.952Q1578.62 202 1577.92 202L45.6008 202Q44.877 202 44.1552 201.948Q43.4334 201.895 42.7173 201.791Q42.0011 201.687 41.2944 201.531Q40.5876 201.375 39.894 201.168Q39.2004 200.962 38.5235 200.706Q37.8466 200.45 37.19 200.145Q36.5334 199.841 35.9006 199.49Q35.2677 199.139 34.6618 198.743Q34.056 198.347 33.4803 197.909Q32.9047 197.47 32.3622 196.991Q31.8198 196.512 31.3134 195.995Q30.8069 195.478 30.3392 194.926Q29.8715 194.373 29.445 193.789Q29.0184 193.204 28.6352 192.59Q28.252 191.976 27.9142 191.336Q27.5764 190.696 27.2857 190.033Q26.995 189.371 26.753 188.689Q26.511 188.007 26.319 187.309Q26.1269 186.611 25.9857 185.901Q25.8446 185.191 25.7551 184.473Q25.6657 183.755 25.6284 183.032Q25.591 182.31 25.6061 181.586Q25.6211 180.862 25.6884 180.142Q25.7556 179.421 25.8748 178.707Q25.994 177.994 26.1645 177.29Q26.3349 176.587 26.5558 175.898Q26.7767 175.209 27.0468 174.537Q27.3169 173.866 27.6348 173.216Q27.9527 172.565 28.3168 171.94Q28.6809 171.314 29.0892 170.717Q29.4975 170.119 29.948 169.553Q30.3985 168.987 30.8887 168.454L180.059 6.45224Q180.409 6.07212 180.778 5.71058Q181.147 5.34904 181.535 5.00705Q181.922 4.66505 182.326 4.34352Q182.731 4.02199 183.151 3.72177Q183.572 3.42155 184.008 3.14346Q184.443 2.86536 184.892 2.61012Q185.342 2.35488 185.803 2.12319Q186.265 1.89149 186.739 1.68396Q187.212 1.47642 187.695 1.2936Q188.178 1.11078 188.67 0.953156Q189.163 0.795536 189.662 0.663538Q190.162 0.53154 190.667 0.425516Q191.173 0.319492 191.684 0.239726Q192.194 0.15996 192.708 0.106663Q193.222 0.0533673 193.738 0.0266837Q194.254 0 194.771 0Z" id="Rectangle-2" fill="#FFD717" fill-rule="evenodd" stroke="none" />
</svg>