<?xml version="1.0" encoding="utf-8"?>
<svg width="50px" height="50px" viewBox="0 0 50 50" version="1.1" xmlns:xlink="http://www.w3.org/1999/xlink" xmlns="http://www.w3.org/2000/svg">
  <defs>
    <path d="M0 0L50 0L50 50L0 50L0 0Z" id="path_1" />
    <clipPath id="mask_1">
      <use xlink:href="#path_1" />
    </clipPath>
  </defs>
  <g id="discord-svgrepo-com">
    <path d="M0 0L50 0L50 50L0 50L0 0Z" id="Background" fill="none" fill-rule="evenodd" stroke="none" />
    <g clip-path="url(#mask_1)">
      <path d="M42.3271 9.10393C39.0855 7.61609 35.6646 6.55515 32.15 5.94767C32.0842 5.93487 32.0177 5.96603 31.9854 6.02476C31.5479 6.80601 31.0604 7.82476 30.7188 8.62893C26.9301 8.05348 23.0762 8.05348 19.2875 8.62893C18.9073 7.73791 18.4782 6.86853 18.0021 6.02479C17.9685 5.96748 17.9031 5.93682 17.8375 5.94768C14.3226 6.55389 10.9015 7.61488 7.66044 9.10393C7.633 9.11544 7.60974 9.13507 7.59377 9.16018C1.11044 18.8456 -0.666641 28.2914 0.206275 37.6185C0.210561 37.6653 0.23392 37.7082 0.270859 37.7373C4.04502 40.5335 8.26693 42.6681 12.7563 44.0498C12.8211 44.0685 12.8907 44.0453 12.9313 43.9914C13.8964 42.6799 14.7507 41.2904 15.4854 39.8373C15.5062 39.7971 15.5087 39.7499 15.4924 39.7077C15.476 39.6655 15.4424 39.6322 15.4 39.6164C14.053 39.101 12.7489 38.4796 11.5 37.7581C11.4535 37.7312 11.4236 37.6828 11.4202 37.6292C11.4169 37.5756 11.4406 37.5239 11.4834 37.4914C11.7464 37.2947 12.0048 37.0918 12.2584 36.8831C12.3036 36.8464 12.3657 36.8383 12.4188 36.8623C20.6021 40.5977 29.4604 40.5977 37.5479 36.8623C37.6016 36.8375 37.6648 36.8456 37.7104 36.8831C37.9604 37.0873 38.2229 37.2956 38.4875 37.4914C38.5298 37.5233 38.5536 37.5741 38.5511 37.627C38.5486 37.6799 38.5201 37.7282 38.475 37.756C37.229 38.4842 35.9236 39.1059 34.5729 39.6143C34.5304 39.6306 34.4968 39.6642 34.4805 39.7068C34.4642 39.7493 34.4668 39.7967 34.4875 39.8373C35.2375 41.2914 36.0959 42.6748 37.0396 43.9893C37.0794 44.0443 37.1498 44.0677 37.2146 44.0477C41.7115 42.6703 45.9402 40.5354 49.7188 37.7352C49.756 37.7088 49.7802 37.6679 49.7854 37.6227C50.8271 26.8373 48.0396 17.4685 42.3917 9.16434C42.3785 9.13634 42.3555 9.11411 42.3271 9.10184L42.3271 9.10393ZM16.7084 31.9373C14.2438 31.9373 12.2146 29.6769 12.2146 26.8977C12.2146 24.1207 14.2063 21.8582 16.7084 21.8582C19.2292 21.8582 21.2417 24.1415 21.2021 26.8998C21.2021 29.6769 19.2104 31.9373 16.7084 31.9373L16.7084 31.9373ZM33.323 31.9373C30.8584 31.9373 28.8292 29.6769 28.8292 26.8977C28.8292 24.1207 30.8188 21.8582 33.323 21.8582C35.8438 21.8582 37.8563 24.1415 37.8167 26.8998C37.8167 29.6769 35.8459 31.9373 33.323 31.9373L33.323 31.9373Z" id="Shape" fill="#FFFFFF" fill-rule="evenodd" stroke="none" />
    </g>
  </g>
</svg>