<?xml version="1.0" encoding="utf-8"?>
<svg width="45px" height="45px" viewBox="0 0 45 45" version="1.1" xmlns:xlink="http://www.w3.org/1999/xlink" xmlns="http://www.w3.org/2000/svg">
  <defs>
    <path d="M0 0L45 0L45 45L0 45L0 0Z" id="path_1" />
    <clipPath id="mask_1">
      <use xlink:href="#path_1" />
    </clipPath>
  </defs>
  <g id="linkedin-svgrepo-com">
    <path d="M0 0L45 0L45 45L0 45L0 0Z" id="Background" fill="none" fill-rule="evenodd" stroke="none" />
    <g clip-path="url(#mask_1)">
      <g id="XMLID_801_" transform="translate(0 0.049560547)">
        <path d="M10.4748 14.4275L1.44102 14.4275C1.04008 14.4275 0.71521 14.7525 0.71521 15.1533L0.71521 44.1751C0.71521 44.576 1.04008 44.9009 1.44102 44.9009L10.4748 44.9009C10.8758 44.9009 11.2006 44.576 11.2006 44.1751L11.2006 15.1533C11.2006 14.7525 10.8758 14.4275 10.4748 14.4275L10.4748 14.4275Z" id="XMLID_802_" fill="#FFFFFF" fill-rule="evenodd" stroke="none" />
        <path d="M5.96119 0C2.67416 0 0 2.67126 0 5.95466C0 9.23952 2.67416 11.9118 5.96119 11.9118C9.24561 11.9118 11.9176 9.23937 11.9176 5.95466C11.9177 2.67126 9.24561 0 5.96119 0L5.96119 0Z" id="XMLID_803_" fill="#FFFFFF" fill-rule="evenodd" stroke="none" />
        <path d="M33.4531 13.7061C29.8248 13.7061 27.1426 15.2658 25.5158 17.0381L25.5158 15.1532C25.5158 14.7524 25.1909 14.4274 24.79 14.4274L16.1385 14.4274C15.7376 14.4274 15.4127 14.7524 15.4127 15.1532L15.4127 44.175C15.4127 44.5759 15.7376 44.9008 16.1385 44.9008L25.1526 44.9008C25.5535 44.9008 25.8784 44.5759 25.8784 44.175L25.8784 29.8159C25.8784 24.9772 27.1927 23.0922 30.5657 23.0922C34.2391 23.0922 34.531 26.1141 34.531 30.0649L34.531 44.1751C34.531 44.576 34.8559 44.9009 35.2569 44.9009L44.2743 44.9009C44.6752 44.9009 45.0001 44.576 45.0001 44.1751L45.0001 28.2561C45.0001 21.0612 43.6282 13.7061 33.4531 13.7061L33.4531 13.7061Z" id="XMLID_804_" fill="#FFFFFF" fill-rule="evenodd" stroke="none" />
      </g>
    </g>
  </g>
</svg>